<?xml version="1.0" encoding="utf-8"?>
<!-- Generator: Adobe Illustrator 26.5.0, SVG Export Plug-In . SVG Version: 6.00 Build 0)  -->
<svg version="1.1" xmlns="http://www.w3.org/2000/svg" xmlns:xlink="http://www.w3.org/1999/xlink" x="0px" y="0px"
	 viewBox="0 0 990.15 990.24" style="enable-background:new 0 0 990.15 990.24;" xml:space="preserve">
<style type="text/css">
	.st0{fill:#ED1C24;}
</style>
<g id="Layer_1">
</g>
<g id="Layer_2">
	<g>
		<g>
			<path class="st0" d="M208.82,638.65c12.07-17.41,26.13-34.12,42.02-49.65l-18.14-38.46c-20.55,21.25-38.49,43.95-53.56,67.26
				L208.82,638.65z"/>
			<path class="st0" d="M266.88,574.29c18.09-15.58,38.26-29.67,60.33-41.59l0.53-57.33c-29.67,17.64-56.34,38.06-79.73,60.08
				L266.88,574.29z"/>
			<path class="st0" d="M441.56,497.73c26.35-1.95,51.68,0.57,75.04,7.53l65.44-80.5c-34.93-7.77-72.55-8.46-110.93-2.47
				L441.56,497.73z"/>
			<path class="st0" d="M348.01,522.39c23.35-10.54,46.91-17.84,70.14-21.79l28.25-73.65c-32.87,7.54-65.83,19.94-97.88,36.78
				L348.01,522.39z"/>
			<path class="st0" d="M608.73,575.5c13.08,22.04,21.04,48.03,22.87,77.33l117.74-31.49c-2.44-43.76-15.64-81.82-37.38-112.91
				L608.73,575.5z"/>
			<g>
				<path class="st0" d="M477.04,551.23l20.37-24.13c-31.41-7.17-67.56-6.29-106.13,4.38c-71.76,19.86-135.21,68.85-174.81,128.07
					c41.39-47.13,98.39-84.71,161.34-101.65C413.42,548.33,446.99,546.62,477.04,551.23z"/>
				<path class="st0" d="M571.79,600.16c21.33,24.13,34.13,55.71,34.86,93.19c1.23-8.76,2.08-17.52,2.08-26.24
					c0-29.97-7.7-56.13-21.07-77.83L571.79,600.16z"/>
			</g>
			<polygon class="st0" points="732.56,380.58 620,403.33 632.13,415.46 420.14,666.59 694.96,478.28 708.25,491.57 			"/>
		</g>
	</g>
</g>
</svg>
